<?xml version="1.0" encoding="UTF-8"?>
<svg id="Layer_2" data-name="Layer 2" xmlns="http://www.w3.org/2000/svg" viewBox="0 0 86 69.77">
  <defs>
    <style>
      .cls-1 {
        fill: #0c1f39;
      }
    </style>
  </defs>
  <g id="Layer_1-2" data-name="Layer 1">
    <g>
      <path class="cls-1" d="M60.77,6.78c0,14.59-11.05,26.59-25.23,28.1,14.18,1.51,25.23,13.52,25.23,28.1,0-14.59,11.05-26.59,25.23-28.1-14.18-1.52-25.23-13.52-25.23-28.1"/>
      <path class="cls-1" d="M52.39,57.07c-4.82,3.82-10.91,6.09-17.52,6.09s-12.69-2.28-17.51-6.09c-1.73-1.37-3.3-2.94-4.67-4.67-3.81-4.82-6.09-10.91-6.09-17.52s2.28-12.7,6.09-17.51c1.38-1.73,2.94-3.3,4.67-4.67,4.82-3.82,10.91-6.09,17.51-6.09s12.7,2.28,17.52,6.09c.39,.31,.77,.64,1.15,.97,1.08-2,2.01-4.1,2.76-6.29C50.39,2.76,42.95,0,34.88,0S18.71,3,12.67,8c-1.7,1.41-3.26,2.97-4.67,4.67C3,18.72,0,26.46,0,34.89s3,16.17,8,22.21c1.41,1.7,2.97,3.27,4.67,4.67,6.04,5,13.78,8,22.21,8s15.51-2.76,21.42-7.38c-.74-2.19-1.67-4.29-2.76-6.29-.38,.33-.76,.66-1.15,.97"/>
      <path class="cls-1" d="M34.88,11.46c-5.27,0-10.14,1.75-14.05,4.69-1.77,1.33-3.34,2.91-4.67,4.67-2.95,3.92-4.7,8.79-4.7,14.05s1.75,10.14,4.7,14.05c1.33,1.77,2.9,3.34,4.67,4.68,3.92,2.95,8.78,4.69,14.05,4.69s10.14-1.75,14.05-4.7c.7-.53,1.36-1.1,2-1.7-1.28-1.8-2.69-3.5-4.24-5.07-.77,.75-1.6,1.44-2.49,2.04-2.67,1.78-5.88,2.82-9.32,2.82s-6.64-1.04-9.31-2.82c-1.85-1.23-3.44-2.82-4.68-4.67-1.78-2.67-2.82-5.88-2.82-9.32s1.04-6.65,2.82-9.32c1.24-1.84,2.82-3.44,4.68-4.67,2.67-1.79,5.87-2.83,9.31-2.83s6.65,1.04,9.32,2.83c.89,.6,1.73,1.28,2.49,2.04,1.55-1.57,2.96-3.27,4.24-5.07-.64-.6-1.3-1.18-2-1.7-3.92-2.95-8.78-4.7-14.05-4.7"/>
    </g>
  </g>
</svg>