<?xml version="1.0" encoding="UTF-8"?>
<svg id="Layer_2" data-name="Layer 2" xmlns="http://www.w3.org/2000/svg" viewBox="0 0 148.69 32.71">
  <defs>
    <style>
      .cls-1 {
        fill: #fff;
      }

      .cls-2 {
        fill: #caa84b;
      }
    </style>
  </defs>
  <g id="Layer_1-2" data-name="Layer 1">
    <g>
      <path class="cls-1" d="M59.05,29.04c-2.36,0-4.49-.48-6.4-1.44-1.91-.96-3.42-2.39-4.54-4.28-1.12-1.9-1.68-4.22-1.68-6.96,0-2.09,.34-3.92,1.02-5.5,.68-1.58,1.61-2.9,2.79-3.97,1.18-1.07,2.54-1.87,4.08-2.41,1.54-.53,3.18-.8,4.9-.8,1.39,0,2.66,.16,3.83,.47,1.17,.32,2.26,.75,3.28,1.31l.15,4.48h-.37l-1.82-2.92c-.24-.46-.51-.88-.8-1.26-.29-.38-.66-.66-1.09-.86-.36-.17-.72-.3-1.08-.38-.35-.09-.8-.13-1.33-.13-1.41,0-2.69,.38-3.85,1.13-1.15,.75-2.08,2-2.77,3.74-.69,1.74-1.04,4.11-1.04,7.13s.33,5.35,.98,7.09c.66,1.74,1.55,2.98,2.68,3.72,1.13,.74,2.4,1.11,3.81,1.11,.78,0,1.4-.05,1.86-.16,.46-.11,.92-.27,1.39-.49,.46-.19,.81-.48,1.06-.86,.24-.38,.46-.78,.66-1.22l1.6-3.57h.36l-.11,5.21c-1.02,.54-2.16,.97-3.43,1.31-1.26,.34-2.65,.51-4.16,.51"/>
      <path class="cls-1" d="M78.59,29.04c-1.48,0-2.91-.27-4.28-.8-1.37-.54-2.6-1.33-3.68-2.39-1.08-1.06-1.94-2.38-2.57-3.95-.63-1.58-.95-3.43-.95-5.54s.32-3.92,.95-5.5c.63-1.58,1.49-2.9,2.59-3.96,1.09-1.06,2.33-1.86,3.7-2.41,1.37-.55,2.79-.82,4.25-.82s2.91,.26,4.28,.78c1.37,.52,2.6,1.31,3.68,2.37s1.94,2.38,2.57,3.97c.63,1.59,.95,3.44,.95,5.56s-.32,3.9-.95,5.49c-.63,1.59-1.49,2.92-2.57,3.97-1.08,1.06-2.31,1.86-3.68,2.41-1.37,.55-2.8,.82-4.28,.82m0-.77c1.34,0,2.42-.36,3.24-1.08,.83-.72,1.43-1.94,1.81-3.68,.38-1.74,.57-4.12,.57-7.16s-.19-5.46-.57-7.2c-.38-1.74-.98-2.96-1.81-3.68-.83-.72-1.91-1.08-3.24-1.08s-2.38,.36-3.21,1.08c-.83,.72-1.43,1.95-1.8,3.68-.38,1.74-.57,4.14-.57,7.2s.19,5.43,.57,7.16c.38,1.74,.98,2.96,1.8,3.68,.83,.72,1.9,1.08,3.21,1.08"/>
      <path class="cls-1" d="M89.89,28.39v-.36l.76-.29c.78-.32,1.17-.93,1.17-1.86V6.84c0-.97-.39-1.59-1.17-1.86l-.76-.29v-.36h9.62c2.58,0,4.79,.48,6.65,1.44,1.86,.96,3.29,2.33,4.3,4.12,1.01,1.79,1.51,3.93,1.51,6.43s-.55,4.73-1.64,6.52c-1.09,1.8-2.62,3.17-4.57,4.12-1.96,.95-4.26,1.42-6.91,1.42h-8.97Zm7.4-.73h1.57c1.75,0,3.16-.35,4.23-1.04,1.07-.69,1.85-1.86,2.35-3.5,.5-1.64,.75-3.89,.75-6.76s-.25-5.12-.75-6.76c-.5-1.64-1.27-2.81-2.31-3.5-1.05-.69-2.42-1.04-4.12-1.04h-1.71V27.66Z"/>
      <path class="cls-1" d="M111.54,28.39v-.36l.84-.33c.41-.17,.7-.39,.86-.67,.16-.28,.24-.66,.24-1.15V6.84c0-.49-.07-.87-.2-1.15-.13-.28-.43-.51-.89-.68l-.84-.33v-.36h17.46l.22,5.61h-.36l-1.57-3.43c-.22-.44-.45-.79-.69-1.06-.24-.27-.61-.4-1.09-.4h-6.56V15.59h3.9c.49,0,.86-.13,1.11-.38,.26-.26,.48-.6,.67-1.04l.73-1.46h.36v6.56h-.36l-.73-1.53c-.22-.44-.45-.78-.69-1.04-.24-.25-.61-.38-1.09-.38h-3.9v11.34h7.36c.49,0,.86-.13,1.13-.38,.27-.26,.49-.61,.66-1.08l1.5-3.43h.36l-.22,5.61h-18.19Z"/>
      <path class="cls-1" d="M137.75,28.39v-.36l1.42-.44c.92-.32,1.39-.93,1.39-1.86V8.08l-2.95,.4v-.47c1.43-.29,2.81-.7,4.14-1.24,1.32-.53,2.57-1.15,3.74-1.86l.47,.33-.15,5.21v15.27c0,.95,.46,1.56,1.39,1.82l1.49,.47v.36h-10.94Z"/>
      <path class="cls-2" d="M28.49,3.18c0,6.84-5.18,12.47-11.83,13.18,6.65,.71,11.83,6.34,11.83,13.18,0-6.84,5.18-12.47,11.83-13.18-6.65-.71-11.83-6.34-11.83-13.18"/>
      <path class="cls-2" d="M24.57,26.76c-2.26,1.79-5.12,2.86-8.21,2.86s-5.95-1.07-8.21-2.86c-.81-.64-1.55-1.38-2.19-2.19-1.79-2.26-2.85-5.11-2.85-8.21s1.07-5.95,2.85-8.21c.65-.81,1.38-1.55,2.19-2.19,2.26-1.79,5.11-2.86,8.21-2.86s5.95,1.07,8.21,2.86c.18,.15,.36,.3,.54,.45,.51-.94,.94-1.92,1.29-2.95-2.77-2.17-6.26-3.46-10.05-3.46S8.77,1.41,5.94,3.75c-.8,.66-1.53,1.39-2.19,2.19C1.41,8.78,0,12.41,0,16.36s1.41,7.58,3.75,10.41c.66,.8,1.39,1.53,2.19,2.19,2.83,2.34,6.46,3.75,10.41,3.75s7.27-1.29,10.05-3.46c-.35-1.03-.78-2.01-1.29-2.95-.18,.15-.36,.31-.54,.45"/>
      <path class="cls-2" d="M16.35,5.38c-2.47,0-4.75,.82-6.59,2.2-.83,.63-1.57,1.36-2.19,2.19-1.38,1.84-2.2,4.12-2.2,6.59s.82,4.75,2.2,6.59c.62,.83,1.36,1.57,2.19,2.19,1.84,1.38,4.12,2.2,6.59,2.2s4.75-.82,6.59-2.2c.33-.25,.64-.52,.94-.8-.6-.85-1.26-1.64-1.99-2.38-.36,.35-.75,.68-1.17,.96-1.25,.84-2.76,1.32-4.37,1.32s-3.12-.49-4.37-1.32c-.87-.58-1.61-1.32-2.19-2.19-.84-1.25-1.32-2.76-1.32-4.37s.49-3.12,1.32-4.37c.58-.86,1.32-1.61,2.19-2.19,1.25-.84,2.75-1.32,4.37-1.32s3.12,.49,4.37,1.32c.42,.28,.81,.6,1.17,.96,.73-.74,1.39-1.53,1.99-2.38-.3-.28-.61-.55-.94-.8-1.84-1.38-4.12-2.2-6.59-2.2"/>
    </g>
  </g>
</svg>